<svg width="78" height="78" viewBox="0 0 78 78" fill="none" xmlns="http://www.w3.org/2000/svg">
<circle cx="39" cy="39" r="38.5" stroke="#FF5151"/>
<path d="M32.6452 20.0005C29.5174 19.6488 26.2851 19.6488 23.1573 20.0005C21.145 20.2268 19.5179 21.821 19.2806 23.8624C18.9065 27.0807 18.9065 30.332 19.2806 33.5504C19.5179 35.5917 21.145 37.1859 23.1573 37.4122C26.2851 37.7639 29.5174 37.7639 32.6452 37.4122C34.6575 37.1859 36.2846 35.5917 36.5219 33.5504C36.896 30.332 36.896 27.0807 36.5219 23.8624C36.2846 21.821 34.6575 20.2268 32.6452 20.0005Z" fill="#FF5151"/>
<path d="M32.6452 43.0808C29.5174 42.7291 26.2851 42.7291 23.1573 43.0808C21.145 43.3071 19.5179 44.9014 19.2806 46.9427C18.9065 50.1611 18.9065 53.4123 19.2806 56.6307C19.5179 58.672 21.145 60.2663 23.1573 60.4926C26.2851 60.8443 29.5174 60.8443 32.6452 60.4926C34.6575 60.2663 36.2846 58.672 36.5219 56.6307C36.896 53.4123 36.896 50.1611 36.5219 46.9427C36.2846 44.9014 34.6575 43.3071 32.6452 43.0808Z" fill="#FF5151"/>
<path d="M55.5851 20.0005C52.4573 19.6488 49.225 19.6488 46.0971 20.0005C44.0849 20.2268 42.4578 21.821 42.2205 23.8624C41.8463 27.0807 41.8463 30.332 42.2205 33.5504C42.4578 35.5917 44.0849 37.1859 46.0971 37.4122C49.225 37.7639 52.4573 37.7639 55.5851 37.4122C57.5974 37.1859 59.2245 35.5917 59.4618 33.5504C59.8359 30.332 59.8359 27.0807 59.4618 23.8624C59.2245 21.821 57.5974 20.2268 55.5851 20.0005Z" fill="#FF5151"/>
<path d="M55.5851 43.0808C52.4573 42.7291 49.225 42.7291 46.0971 43.0808C44.0849 43.3071 42.4578 44.9014 42.2205 46.9427C41.8463 50.1611 41.8463 53.4123 42.2205 56.6307C42.4578 58.672 44.0849 60.2663 46.0971 60.4926C49.225 60.8443 52.4573 60.8443 55.5851 60.4926C57.5974 60.2663 59.2245 58.672 59.4618 56.6307C59.8359 53.4123 59.8359 50.1611 59.4618 46.9427C59.2245 44.9014 57.5974 43.3071 55.5851 43.0808Z" fill="#FF5151"/>
</svg>
