<svg width="86" height="86" viewBox="0 0 86 86" fill="none" xmlns="http://www.w3.org/2000/svg">
<g filter="url(#filter0_d_2_466)">
<circle cx="43" cy="39" r="38.5" stroke="white"/>
<path d="M36.6452 20.0005C33.5174 19.6488 30.2851 19.6488 27.1573 20.0005C25.145 20.2268 23.5179 21.821 23.2806 23.8624C22.9065 27.0807 22.9065 30.332 23.2806 33.5504C23.5179 35.5917 25.145 37.1859 27.1573 37.4122C30.2851 37.7639 33.5174 37.7639 36.6452 37.4122C38.6575 37.1859 40.2846 35.5917 40.5219 33.5504C40.896 30.332 40.896 27.0807 40.5219 23.8624C40.2846 21.821 38.6575 20.2268 36.6452 20.0005Z" fill="white"/>
<path d="M36.6452 43.0808C33.5174 42.7291 30.2851 42.7291 27.1573 43.0808C25.145 43.3071 23.5179 44.9014 23.2806 46.9427C22.9065 50.1611 22.9065 53.4123 23.2806 56.6307C23.5179 58.672 25.145 60.2663 27.1573 60.4926C30.2851 60.8443 33.5174 60.8443 36.6452 60.4926C38.6575 60.2663 40.2846 58.672 40.5219 56.6307C40.896 53.4123 40.896 50.1611 40.5219 46.9427C40.2846 44.9014 38.6575 43.3071 36.6452 43.0808Z" fill="white"/>
<path d="M59.5851 20.0005C56.4573 19.6488 53.225 19.6488 50.0972 20.0005C48.0849 20.2268 46.4578 21.821 46.2205 23.8624C45.8464 27.0807 45.8464 30.332 46.2205 33.5504C46.4578 35.5917 48.0849 37.1859 50.0972 37.4122C53.225 37.7639 56.4573 37.7639 59.5851 37.4122C61.5974 37.1859 63.2245 35.5917 63.4618 33.5504C63.8359 30.332 63.8359 27.0807 63.4618 23.8624C63.2245 21.821 61.5974 20.2268 59.5851 20.0005Z" fill="white"/>
<path d="M59.5851 43.0808C56.4573 42.7291 53.225 42.7291 50.0972 43.0808C48.0849 43.3071 46.4578 44.9014 46.2205 46.9427C45.8464 50.1611 45.8464 53.4123 46.2205 56.6307C46.4578 58.672 48.0849 60.2663 50.0972 60.4926C53.225 60.8443 56.4573 60.8443 59.5851 60.4926C61.5974 60.2663 63.2245 58.672 63.4618 56.6307C63.8359 53.4123 63.8359 50.1611 63.4618 46.9427C63.2245 44.9014 61.5974 43.3071 59.5851 43.0808Z" fill="white"/>
</g>
<defs>
<filter id="filter0_d_2_466" x="0" y="0" width="86" height="86" filterUnits="userSpaceOnUse" color-interpolation-filters="sRGB">
<feFlood flood-opacity="0" result="BackgroundImageFix"/>
<feColorMatrix in="SourceAlpha" type="matrix" values="0 0 0 0 0 0 0 0 0 0 0 0 0 0 0 0 0 0 127 0" result="hardAlpha"/>
<feOffset dy="4"/>
<feGaussianBlur stdDeviation="2"/>
<feComposite in2="hardAlpha" operator="out"/>
<feColorMatrix type="matrix" values="0 0 0 0 0 0 0 0 0 0 0 0 0 0 0 0 0 0 0.25 0"/>
<feBlend mode="normal" in2="BackgroundImageFix" result="effect1_dropShadow_2_466"/>
<feBlend mode="normal" in="SourceGraphic" in2="effect1_dropShadow_2_466" result="shape"/>
</filter>
</defs>
</svg>
